<svg width="80" height="76" viewBox="0 0 80 76" fill="none" xmlns="http://www.w3.org/2000/svg">
<path d="M70.1661 0.24585C69.6114 0.24585 68.2205 0.681213 68.063 0.725487C62.1303 2.5518 56.7485 4.87743 52.0702 7.64458C48.3155 9.87305 45.0035 12.3746 42.213 15.1011C37.9995 19.2174 36.2593 22.6216 35.9174 23.3411C29.4484 26.7772 24.5672 30.1421 21.4004 33.3151C18.7673 35.9691 17.3456 38.4669 17.1758 40.7347C16.9877 43.2288 18.3872 44.5411 18.996 44.9912C19.9873 45.7131 21.1433 46.0968 22.3387 46.0968C24.6287 46.0968 26.5657 44.7133 26.8584 42.8771C27.0195 41.8699 26.669 40.7827 25.9003 39.8775C24.914 38.7215 23.3718 38.0254 21.7718 38.0254C21.5971 38.0254 21.42 38.0328 21.2442 38.0487C22.9992 34.9594 27.6726 31.1973 34.4441 27.4106C33.7713 30.6082 34.1145 33.4209 35.455 35.7772L0.469661 68.7641C0.266737 68.9498 0.197869 69.2449 0.292567 69.5057C0.384805 69.7713 0.625854 69.9447 0.900109 69.9718L78.2289 75.5835H78.2867C78.4749 75.5835 78.6704 75.4987 78.8008 75.3536C78.9472 75.1888 79.0123 74.976 78.9705 74.7571L71.5189 32.3767C72.7561 30.3241 73.2407 28.2518 72.9086 26.3997C72.5741 24.5463 71.439 22.8872 69.6274 21.6217L67.1247 7.40845C67.0755 7.15141 66.8984 6.9448 66.6536 6.86363C66.5823 6.84396 66.5061 6.82919 66.4372 6.82919C66.2515 6.82919 66.0793 6.89561 65.9489 7.02105L53.6075 18.6627C53.0885 18.6898 52.5732 18.7353 52.0517 18.7747C52.4194 17.9322 53.1967 16.3457 54.6418 14.362C56.8334 11.3403 61.0443 6.73573 68.6398 1.9873C68.9387 1.8016 70.4268 0.841095 70.4686 0.448776C70.476 0.403267 70.4612 0.363914 70.4268 0.327019C70.3801 0.271675 70.2989 0.24585 70.1661 0.24585ZM70.1661 0.346695C70.3038 0.346695 70.3801 0.37252 70.3764 0.440163C70.3432 0.783287 68.8465 1.74503 68.5906 1.90983C60.9914 6.66685 56.7657 11.2751 54.5618 14.3042C53.0553 16.3826 52.2706 18.022 51.9091 18.8829C52.4883 18.8312 53.0725 18.7906 53.6431 18.755L66.0178 7.08254C66.126 6.98539 66.2835 6.92143 66.4372 6.92143C66.4975 6.92143 66.5651 6.92881 66.6217 6.95218C66.8394 7.02105 66.9919 7.19815 67.0324 7.42444L69.5425 21.6759C71.3578 22.9315 72.4905 24.5709 72.8164 26.4157C73.1398 28.2518 72.6639 30.3192 71.4193 32.357L78.8783 74.7829C78.9103 74.96 78.8549 75.1531 78.7282 75.2908C78.6163 75.4187 78.4515 75.4913 78.2867 75.4913C78.2707 75.4913 78.2548 75.4827 78.2375 75.4827L0.907488 69.8758C0.670129 69.8635 0.461052 69.7024 0.376193 69.4761C0.299942 69.2523 0.358976 68.994 0.527465 68.8243L35.5755 35.8006C34.1809 33.3987 33.8427 30.516 34.583 27.2372C27.5643 31.1272 22.7839 34.9938 21.0744 38.1607C21.3081 38.1336 21.5381 38.1164 21.7718 38.1164C23.3423 38.1164 24.8599 38.7977 25.8315 39.9402C26.5817 40.8233 26.9236 41.8871 26.7662 42.8574C26.4845 44.6493 24.5832 46.0034 22.3387 46.0034C21.1593 46.0034 20.0242 45.632 19.06 44.9162C18.4573 44.4796 17.0873 43.1907 17.2693 40.7347C17.4304 38.4952 18.8447 36.0183 21.4692 33.3827C24.6287 30.2097 29.5173 26.8535 35.99 23.4099C36.3282 22.6979 38.0426 19.301 42.2769 15.1614C45.0564 12.452 48.372 9.94562 52.1169 7.73313C56.7977 4.96352 62.1635 2.63912 68.0876 0.810349C68.1368 0.799278 69.6028 0.346695 70.1661 0.346695Z" fill="#292929"/>
<path d="M21.7705 37.7771C23.4382 37.7771 25.053 38.5002 26.0959 39.719C26.9051 40.6721 27.2753 41.8405 27.1056 42.9166C27.0871 43.0814 27.0379 43.2548 26.99 43.4122L35.1389 35.7294C33.9165 33.4923 33.5709 30.8567 34.096 27.9002C27.9124 31.3979 23.5464 34.8808 21.698 37.7771H21.7705ZM34.9458 26.7478L34.8241 27.289C34.1034 30.5099 34.4305 33.33 35.7907 35.6703L35.8879 35.8474L35.7428 35.9803L0.709473 69.0126C0.598787 69.1048 0.566811 69.2586 0.616005 69.3865C0.659049 69.5205 0.785724 69.6128 0.921007 69.6202L78.2535 75.2356H78.2609C78.3802 75.2356 78.4786 75.1999 78.5462 75.12C78.6237 75.0388 78.6557 74.9282 78.6298 74.8285L71.1549 32.3116L71.2004 32.2268C72.4154 30.2283 72.884 28.2384 72.5692 26.4625C72.2506 24.6829 71.1549 23.1038 69.395 21.874L69.3064 21.8186L69.2953 21.7129L66.7852 7.47129C66.7619 7.33723 66.6684 7.23393 66.5429 7.18842C66.4077 7.15276 66.281 7.18474 66.1888 7.26836L53.7477 19.0023H53.6628C53.0909 19.038 52.5104 19.0835 51.93 19.1327L51.5155 19.1683L51.6766 18.7944C52.0148 17.9717 52.8216 16.2843 54.3626 14.1567C56.5738 11.1079 60.8193 6.48004 68.4603 1.69226C69.0936 1.28887 69.6569 0.873184 69.9435 0.61615C69.3556 0.696091 68.2881 1.01462 68.1676 1.05028C62.2656 2.87537 56.9047 5.18993 52.2448 7.94601C48.5147 10.1487 45.2199 12.6379 42.4528 15.3447C38.2197 19.4746 36.5188 22.8775 36.2212 23.5183L36.1806 23.5958L36.1142 23.6376C29.6575 27.059 24.791 30.398 21.6451 33.5587C19.0686 36.1451 17.6739 38.5703 17.5165 40.7607C17.3431 43.0937 18.6393 44.3075 19.2038 44.7122C20.1311 45.3923 21.2146 45.7563 22.3424 45.7563C24.4577 45.7563 26.257 44.4994 26.5177 42.8194C26.6678 41.9167 26.3455 40.9218 25.6408 40.1002C24.7148 39.0217 23.2697 38.3723 21.7705 38.3723C21.5479 38.3723 21.3216 38.3883 21.1052 38.408L20.6255 38.4732L20.8518 38.039C22.5785 34.8451 27.4094 30.9256 34.4576 27.0184L34.9458 26.7478ZM78.2842 75.8309H78.2289L0.886569 70.2166C0.506548 70.192 0.18433 69.9473 0.0601162 69.5931C-0.0739366 69.2352 0.0207616 68.8318 0.298706 68.5822L24.2032 46.0416C23.6313 46.2433 22.9979 46.3528 22.3424 46.3528C21.0941 46.3528 19.8839 45.9494 18.8497 45.1918C18.2089 44.7158 16.7355 43.347 16.9213 40.709C17.0984 38.3809 18.5434 35.8315 21.222 33.143C24.3962 29.954 29.2775 26.5941 35.7342 23.1567C36.1302 22.3462 37.9171 18.9457 42.0371 14.9217C44.8424 12.184 48.1765 9.66286 51.9459 7.43808C56.6427 4.65987 62.0417 2.31579 67.9905 0.489471C68.6066 0.301308 69.6741 0 70.1636 0C70.2977 0 70.4821 0.0159836 70.6125 0.154961C70.6924 0.258263 70.7281 0.362801 70.7244 0.462418C70.7047 0.603851 70.6678 1.01462 68.7677 2.20264C61.2153 6.9277 57.0301 11.499 54.8434 14.5023C53.6468 16.1589 52.8978 17.5314 52.4539 18.4919C52.8056 18.4673 53.1512 18.4341 53.5017 18.423L65.778 6.83424C66.0362 6.59564 66.415 6.51202 66.7287 6.63008C67.0583 6.7383 67.3079 7.01133 67.3694 7.36183L69.8512 21.4706C71.6837 22.7693 72.8225 24.4603 73.157 26.3494C73.4879 28.2458 73.0156 30.3451 71.7808 32.4236L79.2189 74.7203C79.2718 75.0155 79.187 75.2959 78.9902 75.5222C78.8069 75.7153 78.5536 75.8309 78.2842 75.8309Z" fill="#4D4D4E"/>
<path d="M68.2679 1.39095C53.3364 10.7341 51.012 19.5766 51.012 19.5766C52.0069 19.4807 52.965 19.4032 53.8984 19.3516L66.4354 7.52048L68.9837 22.0289C72.6621 24.4468 73.3349 28.1917 70.778 32.2329L78.285 74.8839L0.948792 69.2721L36.3461 35.9003C34.767 33.4714 34.2517 30.2308 35.5283 26.0296C32.4438 27.6764 21.9102 33.4603 20.0384 39.0204C20.6336 38.8175 21.2141 38.7253 21.77 38.7253C24.4474 38.7253 26.4656 40.8652 26.1643 42.7641C25.9343 44.2792 24.2469 45.3996 22.3407 45.3996C21.3716 45.3996 20.3385 45.1045 19.4124 44.4281C16.6748 42.4111 15.1535 35.1194 36.4605 23.8503C36.4605 23.8503 42.5015 9.33819 68.2679 1.39095Z" fill="#4D4D4E"/>
<path d="M2.92535 72.8041L61.943 9.90995L79.6356 71.6603L2.92535 72.8041Z" fill="white"/>
<path d="M61.9271 9.96569L2.9869 72.7725L79.5963 71.6361L61.9271 9.96569ZM2.86269 72.8365L2.91188 72.7885L61.9591 9.86116L61.9702 9.90912L79.6651 71.6853H79.6332L2.86269 72.8365Z" fill="#292929"/>
<path d="M61.8094 10.4593L3.57386 72.5172L79.2658 71.3882L61.8094 10.4593ZM2.27023 73.0878L2.72527 72.6094L62.0824 9.35984L62.1968 9.80259L80 71.9158L79.6814 71.933L2.27023 73.0878Z" fill="#4D4D4E"/>
<path d="M53.777 18.7452L56.6487 16.2474L54.804 20.8863L49.1848 24.614L48.1628 21.302L52.8584 18.7993L53.777 18.7452Z" fill="white"/>
<path d="M68.268 1.391C42.5015 9.33824 36.4605 23.8504 36.4605 23.8504C15.1535 35.128 16.6748 42.4112 19.4125 44.4281C22.1562 46.4426 25.8101 45.0553 26.1643 42.7641C26.5345 40.4815 23.5251 37.83 20.0384 39.0205C21.9103 33.4604 32.4439 27.6764 35.5283 26.0297C30.8082 41.6081 50.6086 43.9448 58.1808 40.6894C64.0988 39.8937 66.4589 34.1442 60.3638 35.3814C48.192 35.7614 49.0517 22.045 50.1782 21.1484C58.6444 19.4721 67.7354 21.3649 68.6873 26.3384C69.6368 31.318 66.3974 32.7876 66.3974 32.7876C66.3974 32.7876 55.6326 39.8703 66.9127 36.5264C77.9665 27.1021 71.7349 17.3605 51.012 19.5767C51.012 19.5767 53.3364 10.7341 68.268 1.391Z" fill="#2AA859"/>
<path d="M10.9949 69.3747C28.3959 66.7231 45.8117 54.8207 54.1329 46.2991C62.4429 37.7751 63.0677 26.6549 57.3526 26.1334C51.6412 25.612 50.3843 28.5242 50.3843 28.5242L49.869 26.6549C49.869 26.6549 57.0906 22.0749 63.1685 26.9648C66.0205 29.2523 67.8407 34.682 66.3587 40.5951C64.6665 47.3261 58.9674 54.7851 50.3031 60.5481C34.0016 71.3842 20.9874 70.2171 10.9949 69.3747Z" fill="#3F4493"/>
<path d="M41.1333 40.2728C45.1451 42.6046 51.5661 42.1939 51.5661 42.1939C51.5661 42.1939 52.6692 45.3041 53.4662 46.5057C52.3101 48.0664 45.1906 53.6093 45.1906 53.6093C45.1906 53.6093 40.7951 47.0603 41.1333 40.2728Z" fill="#3F4493"/>
<path d="M51.3755 60.1742C52.9374 58.9235 55.7882 56.8992 58.0782 54.4505C59.8467 57.364 67.4299 65.8893 75.542 69.8506C63.2214 68.7512 55.4316 63.0877 51.3755 60.1742Z" fill="#3F4493"/>
<path d="M25.3537 43.0106C24.9663 44.3204 23.1707 44.9353 21.3383 44.3966C19.4972 43.8555 18.3325 42.3502 18.7199 41.0453C19.1036 39.7404 20.9029 39.1206 22.7366 39.6593C24.5728 40.2127 25.7411 41.7106 25.3537 43.0106Z" fill="#3F4493"/>
<path d="M63.1088 10.2251L61.392 11.6948L61.606 12.1129L63.1088 10.6211V10.2251Z" fill="white"/>
<path d="M74.1366 51.3162L74.9643 56.8247L76.2778 61.3677L74.3211 50.3372L74.1366 51.3162Z" fill="white"/>
<path d="M4.95507 69.5596L7.79969 69.7859V70.3775L4.92801 69.8856L4.95507 69.5596Z" fill="white"/>
<path d="M44.7322 72.4468L39.3627 71.693L33.0917 71.9857L46.0617 72.8355L44.7322 72.4468Z" fill="white"/>
<path d="M77.6274 71.292L77.9976 73.2376H78.6113L78.1845 70.832L77.6274 71.292Z" fill="white"/>
</svg>
