<svg width="200" height="200" viewBox="0 0 200 200" fill="none" xmlns="http://www.w3.org/2000/svg">
<path d="M63.5156 67.1719L61.8906 78.8906L98.8594 85.8594L100.969 70.9062L63.5156 67.1719Z" fill="#201284"/>
<path d="M66.5682 77.5801C69.1092 75.4531 69.4447 71.6689 67.3177 69.128C65.1906 66.5871 61.4065 66.2515 58.8655 68.3786C56.3246 70.5056 55.9891 74.2898 58.1161 76.8307C60.2432 79.3716 64.0273 79.7072 66.5682 77.5801Z" fill="#201284"/>
<path d="M81.8437 48.875L71.375 43.3594L57.4062 70.2031L67.875 75.7188L81.8437 48.875Z" fill="#201284"/>
<path d="M86.3594 36.9062L86.125 36.6406C85.4978 35.9399 84.7385 35.3698 83.8906 34.963C83.0427 34.5562 82.1229 34.3206 81.1838 34.2698C80.2448 34.219 79.3049 34.3539 78.418 34.6669C77.5312 34.9799 76.7148 35.4648 76.0157 36.0937L73 38.7969C72.2993 39.4241 71.7292 40.1834 71.3224 41.0313C70.9156 41.8792 70.68 42.799 70.6292 43.7381C70.5784 44.6772 70.7134 45.617 71.0264 46.5039C71.3393 47.3907 71.8242 48.2071 72.4532 48.9062L72.6875 49.1719C73.3148 49.8726 74.0741 50.4427 74.922 50.8495C75.7699 51.2563 76.6897 51.4919 77.6288 51.5427C78.5678 51.5935 79.5077 51.4585 80.3945 51.1456C81.2814 50.8326 82.0978 50.3477 82.7969 49.7187L85.8125 47.0156C87.2244 45.7468 88.075 43.9695 88.1776 42.0741C88.2801 40.1786 87.6262 38.32 86.3594 36.9062Z" fill="#FFB300"/>
<path d="M106 79.3125C105.328 83.6719 101.156 86.2188 97.9375 85.7188C94.7031 85.2188 92.7344 80.5937 93.2344 77.3594C93.7344 74.125 97 70.2969 100.219 70.7812C103.437 71.2812 106.672 74.8281 106 79.3125Z" fill="#16A7DA"/>
<path d="M108.456 158.897C112.529 155.701 113.241 149.808 110.046 145.734C106.85 141.661 100.957 140.949 96.8829 144.145C92.8092 147.34 92.0974 153.233 95.2931 157.307C98.4888 161.381 104.382 162.093 108.456 158.897Z" fill="#E5B35A"/>
<path d="M111.281 151.047L93.5938 153.969L80.6406 114.359L103.078 109.453L111.281 151.047Z" fill="#E5B35A"/>
<path d="M138.531 166.781L131.703 181.188L97.3125 159.266L107.094 144.391L138.531 166.781ZM86.9218 102.438C96.3437 100.813 105.297 107.125 106.922 116.547C108.547 125.969 102.234 134.922 92.8125 136.547C83.3906 138.172 77.5 104.063 86.9218 102.438Z" fill="#E5B35A"/>
<path d="M144.563 171.625L141.828 186.563C141.572 187.952 140.775 189.184 139.612 189.986C138.449 190.789 137.015 191.097 135.625 190.844L135.359 190.797C133.97 190.541 132.738 189.744 131.936 188.581C131.133 187.418 130.825 185.984 131.078 184.594L133.813 169.656C134.069 168.267 134.866 167.035 136.029 166.233C137.192 165.43 138.625 165.121 140.016 165.375L140.281 165.422C143.188 165.953 145.094 168.734 144.563 171.625Z" fill="#2E398F"/>
<path d="M145.531 166.375L141.141 190.344C141 191.156 140.219 191.687 139.406 191.547L134.969 190.734L139.625 165.312L145.531 166.375Z" fill="#2E398F"/>
<path d="M140.688 165.484L139.078 174.266L133.172 173.187L134.109 168.063C134.197 167.582 134.379 167.124 134.644 166.713C134.909 166.303 135.252 165.949 135.654 165.672C136.056 165.395 136.509 165.2 136.987 165.098C137.464 164.996 137.957 164.989 138.437 165.078L140.688 165.484Z" fill="#2E398F"/>
<path d="M142.578 165.828C140.656 165.484 138.828 166.766 138.469 168.672L137.5 174L135.422 185.391C134.922 188.156 136.641 190.781 139.312 191.484V191.531C142.219 192.031 144.984 190.094 145.516 187.203L148.656 170.062C148.73 169.662 148.724 169.251 148.639 168.853C148.553 168.455 148.389 168.078 148.156 167.744C147.924 167.409 147.627 167.125 147.284 166.906C146.941 166.687 146.557 166.538 146.156 166.469L142.578 165.828Z" fill="#BABABA"/>
<path d="M80.1588 157.286C85.2598 156.505 88.7624 151.738 87.982 146.637C87.2017 141.536 82.4338 138.033 77.3327 138.813C72.2317 139.594 68.7291 144.362 69.5095 149.463C70.2898 154.564 75.0577 158.066 80.1588 157.286Z" fill="#F4D598"/>
<path d="M87.2031 151.516L69.5469 146.266L77.7188 105.391L100.484 111.25L87.2031 151.516Z" fill="#F4D598"/>
<path d="M86.4219 187.922L69.875 187.953L69.4062 148.266L88.4063 146.766L86.4219 187.922ZM84.5938 94.7344C93.5625 93.9531 101.453 100.578 102.25 109.547C103.031 118.516 96.4063 126.406 87.4375 127.203C78.4688 127.984 75.625 95.5156 84.5938 94.7344Z" fill="#F4D598"/>
<path d="M119.031 54.0625L113.469 69.4688L101.219 66.6562L107.984 34.8281L119.031 54.0625Z" fill="#FBC11B"/>
<path d="M128.297 47C128.297 47 130.797 48.1719 130.031 51.0156C129.344 53.5156 127.156 53.9687 125.234 53.4531L127.094 46.6719L128.297 47ZM99.5938 39.125C99.5938 39.125 96.8438 38.8594 96.0625 41.6875C95.375 44.1875 97.0313 45.7031 98.9375 46.2344L100.797 39.4531L99.5938 39.125Z" fill="#E49500"/>
<path d="M119.031 24.5156C107.688 21.4062 102.313 29.375 98.9219 41.7188C95.4063 54.5156 102.734 60.0938 108.797 61.7656C114.781 63.4062 123.984 62.4688 127.531 49.5781C130.938 37.2344 130.375 27.625 119.031 24.5156Z" fill="#FBC11B"/>
<path d="M119.922 58.3281C121.437 55.4688 124.359 53.2969 127.031 51.3125L128.781 47.3437C128.781 47.3437 129.156 47.625 129.453 48.0312C129.734 48.4062 129.875 48.6719 129.875 48.6719C129.875 48.6719 130.875 45.0312 132.234 40.0625C133.641 34.9531 131.969 26.5781 119.797 22.9844C119.797 22.9844 119.578 22.9219 119.484 22.8906C119.391 22.8594 119.172 22.8125 119.172 22.8125C106.875 19.6875 101.156 26.0312 99.7656 31.1406C98.4062 36.0937 97.4062 39.75 97.4062 39.75C97.4062 39.75 97.6562 39.5937 98.0937 39.4219C98.5625 39.2344 99.0313 39.1719 99.0313 39.1719L98.5156 43.4844C99.9687 44.9844 100.922 47.5 100.906 51.8906C100.547 57.2969 116.875 61.4688 119.922 58.3281Z" fill="#6D4C41"/>
<path d="M133.298 30.5727C133.797 23.272 126.922 16.8561 117.943 16.2423C108.963 15.6286 101.279 21.0495 100.78 28.3502C100.281 35.6509 107.156 42.0669 116.136 42.6806C125.115 43.2944 132.799 37.8735 133.298 30.5727Z" fill="#FF5050"/>
<path d="M128.641 26.6406C136.063 35.0781 134.141 44.1719 128.516 51.4219C122.531 59.1406 107.297 56.1719 100.781 48.5781C94.2657 40.9844 95.7344 31.1875 102.734 25.1719C109.734 19.1563 122.031 19.125 128.641 26.6406Z" fill="#DD170E"/>
<path d="M119.004 30.7917C119.186 29.7899 118.384 28.8048 117.212 28.5915C116.041 28.3782 114.943 29.0175 114.761 30.0193C114.578 31.0211 115.38 32.0061 116.552 32.2194C117.724 32.4327 118.821 31.7935 119.004 30.7917Z" fill="#B5170F"/>
<path d="M80.5938 117.875C79.715 117.613 78.8966 117.181 78.1853 116.602C77.4739 116.023 76.8837 115.31 76.4483 114.503C76.0129 113.696 75.7409 112.812 75.6479 111.899C75.5549 110.987 75.6427 110.066 75.9063 109.187C79.4219 95.9219 84.2812 80.875 90.5 69.6875C92.4844 64.8437 98.5469 58.9062 104.359 61.0156L113.484 63.9687C117.437 65.3594 119.375 73.7656 117.281 78.9062C112.359 90.5312 110.297 102.203 108.812 116.328C107.609 123.203 86.3438 119.359 80.5938 117.875Z" fill="#651FFF"/>
<path d="M109.266 56.3906C109.266 56.3906 117.984 55.9844 120.484 69.7031C122.484 80.6406 133.516 87.9375 133.516 87.9375C133.516 87.9375 120.125 87.3438 111.406 77.8906C102.688 68.4375 109.266 56.3906 109.266 56.3906Z" fill="#6D4C41"/>
<path d="M81.875 198.297H66.6875C63.7344 198.297 61.3594 195.906 61.3594 192.969V192.703C61.3594 189.75 63.75 187.375 66.6875 187.375H81.875C84.8281 187.375 87.2031 189.766 87.2031 192.703V192.969C87.2031 195.906 84.8125 198.297 81.875 198.297Z" fill="#2E398F"/>
<path d="M61.3594 192.297H87.2031V199.688H61.3594V192.297Z" fill="#2E398F"/>
<path d="M78.2812 187.359H87.2188V193.359H78.2812V187.359Z" fill="#2E398F"/>
<path d="M160.734 102.688L162.547 100.078L66.2031 34.1875L64.3906 36.7969L160.734 102.688Z" fill="#898989"/>
<path d="M83.4063 50.6719L86.0625 46.8281L64.0625 31.7344L61.4062 35.5781L83.4063 50.6719ZM162.625 99.9531C162.625 99.9531 169.766 103.938 170.547 105.641C171.141 106.906 171.234 111.406 170.922 114.297C170.609 117.188 169.234 117.797 169.234 117.797C169.234 117.797 166.828 119.406 164.203 119.813C161.594 120.234 161.469 117.859 161.469 117.859C161.469 117.859 160.922 113.562 161.188 112.156C161.453 110.75 162.453 108.156 163.875 106.422C164.516 105.641 163.469 104.969 163.469 104.969L160.625 102.797L162.625 99.9531Z" fill="#4D5156"/>
<path d="M60.7969 66.5938L60.9688 78.4219L98.5469 79.7188L98.375 64.6094L60.7969 66.5938Z" fill="#3615AF"/>
<path d="M65.3782 76.4243C67.5686 73.9378 67.3285 70.1464 64.8419 67.956C62.3553 65.7657 58.5639 66.0058 56.3736 68.4924C54.1832 70.9789 54.4234 74.7703 56.9099 76.9607C59.3965 79.151 63.1879 78.9109 65.3782 76.4243Z" fill="#3615AF"/>
<path d="M76.1406 45.7187L64.9688 41.8594L55.2031 70.5156L66.3906 74.375L76.1406 45.7187Z" fill="#3615AF"/>
<path d="M78.7969 33.2031L78.5156 32.9688C77.7898 32.3704 76.953 31.9211 76.0533 31.6466C75.1535 31.3722 74.2085 31.278 73.2723 31.3695C72.336 31.4609 71.4271 31.7362 70.5974 32.1795C69.7678 32.6229 69.0338 33.2256 68.4375 33.9531L65.875 37.0781C65.2766 37.8039 64.8273 38.6407 64.5529 39.5404C64.2784 40.4402 64.1842 41.3853 64.2757 42.3215C64.3671 43.2577 64.6424 44.1667 65.0858 44.9963C65.5291 45.8259 66.1318 46.5599 66.8594 47.1563L67.1406 47.3906C67.8664 47.989 68.7032 48.4383 69.6029 48.7127C70.5027 48.9872 71.4477 49.0814 72.3839 48.9899C73.3202 48.8985 74.2291 48.6232 75.0588 48.1798C75.8884 47.7365 76.6224 47.1338 77.2187 46.4063L79.7812 43.2813C80.9826 41.8124 81.5534 39.9276 81.3689 38.039C81.1845 36.1505 80.2597 34.4118 78.7969 33.2031Z" fill="#FBC11B"/>
<path d="M104.609 72.1719C104.609 76.5781 100.875 79.7188 97.6094 79.7188C94.3438 79.7188 91.6875 75.4375 91.6875 72.1719C91.6875 68.9062 94.3281 64.625 97.6094 64.625C100.875 64.6094 104.609 67.625 104.609 72.1719Z" fill="#3615AF"/>
</svg>
