<svg width="200" height="200" viewBox="0 0 200 200" fill="none" xmlns="http://www.w3.org/2000/svg">
<path opacity="0.5" d="M100 183.333C146.024 183.333 183.333 170.275 183.333 154.167C183.333 138.058 146.024 125 100 125C53.9763 125 16.6667 138.058 16.6667 154.167C16.6667 170.275 53.9763 183.333 100 183.333Z" fill="#2E398F"/>
<path d="M100 10.4167C101.658 10.4167 103.247 11.0751 104.419 12.2472C105.592 13.4193 106.25 15.0091 106.25 16.6667V25.3L147.983 46.1667L148.433 46.3917C154.55 49.45 159.767 52.0583 163.4 54.5917C167.083 57.1667 170.95 60.8917 170.95 66.6667C170.95 72.4417 167.083 76.1667 163.4 78.7417C159.767 81.275 154.55 83.8833 148.433 86.9417L106.25 108.025V150C106.25 151.658 105.592 153.247 104.419 154.419C103.247 155.592 101.658 156.25 100 156.25C98.3424 156.25 96.7527 155.592 95.5806 154.419C94.4085 153.247 93.75 151.658 93.75 150V16.6667C93.75 15.0091 94.4085 13.4193 95.5806 12.2472C96.7527 11.0751 98.3424 10.4167 100 10.4167Z" fill="#369B43"/>
</svg>
