<svg width="150" height="150" viewBox="0 0 150 150" fill="none" xmlns="http://www.w3.org/2000/svg">
<path d="M116.016 86.9531C99.8438 86.9531 86.7188 100.078 86.7188 116.25C86.7188 132.422 99.8438 145.547 116.016 145.547C132.188 145.547 145.312 132.188 145.312 116.016C145.312 100.078 132.188 86.9531 116.016 86.9531Z" fill="#369B43"/>
<path d="M125.391 4.6875L43.5938 97.9688C40.0781 102.188 33.5156 102.656 29.0625 98.9062C24.6094 95.1562 23.9063 88.8281 27.6563 84.375C31.1719 80.1562 30.4688 73.5938 26.25 69.8438C21.7969 66.0938 15.4688 66.5625 11.7188 70.7812C0.937513 83.6719 3.04689 103.125 16.1719 114.141C29.0625 125.156 48.0469 123.984 59.0625 111.797L145.313 4.6875H125.391Z" fill="#2E398F"/>
<path d="M89.7656 73.5938C89.7656 73.5938 90.9375 59.0625 92.5781 54.6094C97.9688 39.375 130.312 4.6875 130.312 4.6875H123.516L72.8906 63.9844C72.4219 91.875 55.3125 115.312 55.3125 115.312C60.7031 112.734 89.7656 73.5938 89.7656 73.5938Z" fill="#C7E755"/>
<path d="M116.016 86.9531C99.8438 86.9531 86.7188 100.078 86.7188 116.25C86.7188 132.422 99.8438 145.547 116.016 145.547C132.188 145.547 145.312 132.188 145.312 116.016C145.312 100.078 132.188 86.9531 116.016 86.9531Z" fill="#369B43"/>
<path d="M72.8906 63.9844C72.8906 63.9844 68.4375 69.375 64.9219 73.5938C70.7813 89.0625 55.5469 115.312 55.5469 115.312C55.5469 115.312 80.3906 82.5 72.8906 63.9844Z" fill="#369B43"/>
</svg>
