<svg width="208" height="206" viewBox="0 0 208 206" fill="none" xmlns="http://www.w3.org/2000/svg">
<circle cx="100.5" cy="100" r="100" fill="#2AA859" fill-opacity="0.1"/>
<circle cx="107.5" cy="106" r="99.5" stroke="#369B43"/>
<path d="M138 108.167V87.3333C138 85.1232 137.122 83.0036 135.559 81.4408C133.996 79.878 131.877 79 129.667 79H71.3333C69.1232 79 67.0036 79.878 65.4408 81.4408C63.878 83.0036 63 85.1232 63 87.3333V112.333C63 114.543 63.878 116.663 65.4408 118.226C67.0036 119.789 69.1232 120.667 71.3333 120.667H100.5M110.917 131.083L119.25 139.417L135.917 122.75M100.5 99.875L100.542 99.8292M117.167 99.875L117.208 99.8292M83.8333 99.875L83.875 99.8292" stroke="#369B43" stroke-width="4" stroke-linecap="round" stroke-linejoin="round"/>
</svg>
